<svg xmlns="http://www.w3.org/2000/svg" viewBox="0 0 420.0 297.0" width="420.0mm" height="297.0mm" font-family="Arial, 'Liberation Sans', sans-serif"><rect width="100%" height="100%" fill="#fff"/>
<path d="M230.00,247.00 L295.00,247.00" fill="none" stroke="#111111" stroke-width="0.7" stroke-linejoin="round"/>
<path d="M230.00,252.00 L295.00,252.00" fill="none" stroke="#111111" stroke-width="0.7" stroke-linejoin="round"/>
<path d="M295.00,237.00 L295.00,292.00" fill="none" stroke="#111111" stroke-width="0.7" stroke-linejoin="round"/>
<path d="M295.00,252.00 L415.00,252.00" fill="none" stroke="#111111" stroke-width="0.7" stroke-linejoin="round"/>
<path d="M365.00,252.00 L365.00,292.00" fill="none" stroke="#111111" stroke-width="0.7" stroke-linejoin="round"/>
<path d="M295.00,277.00 L415.00,277.00" fill="none" stroke="#111111" stroke-width="0.7" stroke-linejoin="round"/>
<path d="M365.00,257.00 L415.00,257.00" fill="none" stroke="#111111" stroke-width="0.7" stroke-linejoin="round"/>
<path d="M365.00,272.00 L415.00,272.00" fill="none" stroke="#111111" stroke-width="0.7" stroke-linejoin="round"/>
<path d="M382.00,252.00 L382.00,272.00" fill="none" stroke="#111111" stroke-width="0.7" stroke-linejoin="round"/>
<path d="M397.00,252.00 L397.00,272.00" fill="none" stroke="#111111" stroke-width="0.7" stroke-linejoin="round"/>
<path d="M397.00,272.00 L397.00,277.00" fill="none" stroke="#111111" stroke-width="0.7" stroke-linejoin="round"/>
<path d="M71.00,184.00 L79.00,184.00" fill="none" stroke="#111111" stroke-width="0.8" stroke-linejoin="round"/>
<path d="M79.00,184.00 L87.00,184.00" fill="none" stroke="#333333" stroke-width="0.9" stroke-dasharray="3 1.5" stroke-linejoin="round"/>
<path d="M71.00,64.00 L79.00,64.00" fill="none" stroke="#111111" stroke-width="0.8" stroke-linejoin="round"/>
<path d="M79.00,64.00 L87.00,64.00" fill="none" stroke="#333333" stroke-width="0.9" stroke-dasharray="3 1.5" stroke-linejoin="round"/>
<path d="M62.00,40.00 L62.00,30.00 L100.00,30.00" fill="none" stroke="#333333" stroke-width="0.9" stroke-dasharray="3 1.5" stroke-linejoin="round"/>
<path d="M62.00,209.00 L62.00,216.00" fill="none" stroke="#111111" stroke-width="1.6" stroke-linejoin="round"/>
<path d="M150.00,74.00 L140.00,78.00 L140.00,150.00 L174.00,150.00 L174.00,78.00 L164.00,74.00" fill="none" stroke="#111111" stroke-width="0.7" stroke-linejoin="round"/>
<path d="M153.00,60.00 L153.00,36.00" fill="none" stroke="#333333" stroke-width="0.45" stroke-linejoin="round"/>
<path d="M161.00,60.00 L161.00,52.00 L182.00,52.00 L182.00,122.60" fill="none" stroke="#333333" stroke-width="0.45" stroke-linejoin="round"/>
<path d="M182.00,127.40 L182.00,205.00 L154.00,205.00 L154.00,221.00 L160.00,221.00" fill="none" stroke="#333333" stroke-width="0.45" stroke-linejoin="round"/>
<path d="M176.00,221.00 L180.80,221.00" fill="none" stroke="#333333" stroke-width="0.45" stroke-linejoin="round"/>
<path d="M185.20,221.00 L190.24,221.00" fill="none" stroke="#333333" stroke-width="0.45" stroke-linejoin="round"/>
<path d="M193.76,221.00 L199.00,221.00 L199.00,160.00 L225.00,160.00 L225.00,194.40" fill="none" stroke="#333333" stroke-width="0.45" stroke-linejoin="round"/>
<path d="M225.00,232.00 L225.00,209.20" fill="none" stroke="#111111" stroke-width="1.4" stroke-linejoin="round"/>
<path d="M225.00,202.80 L225.00,196.00" fill="none" stroke="#111111" stroke-width="1.4" stroke-linejoin="round"/>
<path d="M345.00,206.00 L345.00,180.20" fill="none" stroke="#111111" stroke-width="1.6" stroke-linejoin="round"/>
<path d="M345.00,173.80 L345.00,146.00" fill="none" stroke="#111111" stroke-width="1.6" stroke-linejoin="round"/>
<path d="M0.20,0.20 L419.80,0.20 L419.80,296.80 L0.20,296.80 Z" fill="none" stroke="#bbbbbb" stroke-width="0.1" stroke-linejoin="round"/>
<path d="M20.00,5.00 L415.00,5.00 L415.00,292.00 L20.00,292.00 Z" fill="none" stroke="#111111" stroke-width="0.7" stroke-linejoin="round"/>
<path d="M230.00,237.00 L415.00,237.00 L415.00,292.00 L230.00,292.00 Z" fill="none" stroke="#111111" stroke-width="0.7" stroke-linejoin="round"/>
<path d="M230.00,242.00 L295.00,242.00" fill="none" stroke="#111111" stroke-width="0.18" stroke-linejoin="round"/>
<path d="M230.00,257.00 L295.00,257.00" fill="none" stroke="#111111" stroke-width="0.18" stroke-linejoin="round"/>
<path d="M230.00,262.00 L295.00,262.00" fill="none" stroke="#111111" stroke-width="0.18" stroke-linejoin="round"/>
<path d="M230.00,267.00 L295.00,267.00" fill="none" stroke="#111111" stroke-width="0.18" stroke-linejoin="round"/>
<path d="M230.00,272.00 L295.00,272.00" fill="none" stroke="#111111" stroke-width="0.18" stroke-linejoin="round"/>
<path d="M230.00,277.00 L295.00,277.00" fill="none" stroke="#111111" stroke-width="0.18" stroke-linejoin="round"/>
<path d="M230.00,282.00 L295.00,282.00" fill="none" stroke="#111111" stroke-width="0.18" stroke-linejoin="round"/>
<path d="M230.00,287.00 L295.00,287.00" fill="none" stroke="#111111" stroke-width="0.18" stroke-linejoin="round"/>
<path d="M237.00,237.00 L237.00,292.00" fill="none" stroke="#111111" stroke-width="0.18" stroke-linejoin="round"/>
<path d="M247.00,237.00 L247.00,292.00" fill="none" stroke="#111111" stroke-width="0.18" stroke-linejoin="round"/>
<path d="M270.00,237.00 L270.00,292.00" fill="none" stroke="#111111" stroke-width="0.18" stroke-linejoin="round"/>
<path d="M285.00,237.00 L285.00,292.00" fill="none" stroke="#111111" stroke-width="0.18" stroke-linejoin="round"/>
<text x="230.60" y="251.20" font-size="1.8" text-anchor="start" fill="#111111">Изм.</text>
<text x="237.60" y="251.20" font-size="1.8" text-anchor="start" fill="#111111">Лист</text>
<text x="247.60" y="251.20" font-size="1.8" text-anchor="start" fill="#111111">№ докум.</text>
<text x="270.60" y="251.20" font-size="1.8" text-anchor="start" fill="#111111">Подп.</text>
<text x="285.60" y="251.20" font-size="1.8" text-anchor="start" fill="#111111">Дата</text>
<text x="230.60" y="256.20" font-size="1.8" text-anchor="start" fill="#111111">Разраб.</text>
<text x="230.60" y="261.20" font-size="1.8" text-anchor="start" fill="#111111">Пров.</text>
<text x="230.60" y="266.20" font-size="1.8" text-anchor="start" fill="#111111">Т.контр.</text>
<text x="230.60" y="276.20" font-size="1.8" text-anchor="start" fill="#111111">Н.контр.</text>
<text x="230.60" y="281.20" font-size="1.8" text-anchor="start" fill="#111111">Утв.</text>
<text x="355.00" y="246.50" font-size="4.2" text-anchor="middle" fill="#111111" font-weight="bold">ИНУМ.770-50.00.03</text>
<text x="330.00" y="259.70" font-size="2.9" text-anchor="middle" fill="#111111" font-weight="bold">Конденсатор E-1, подача P-3, узлы</text>
<text x="330.00" y="264.30" font-size="2.9" text-anchor="middle" fill="#111111">P2, P3, P4</text>
<text x="369.00" y="255.80" font-size="1.9" text-anchor="start" fill="#111111">Лит.</text>
<text x="384.00" y="255.80" font-size="1.9" text-anchor="start" fill="#111111">Масса</text>
<text x="399.00" y="255.80" font-size="1.9" text-anchor="start" fill="#111111">Масштаб</text>
<text x="373.50" y="266.00" font-size="3" text-anchor="middle" fill="#111111">П</text>
<text x="389.50" y="266.00" font-size="3" text-anchor="middle" fill="#111111">—</text>
<text x="406.00" y="266.00" font-size="3" text-anchor="middle" fill="#111111">б/м</text>
<text x="367.00" y="275.80" font-size="2.2" text-anchor="start" fill="#111111">Лист 3</text>
<text x="399.00" y="275.80" font-size="2.2" text-anchor="start" fill="#111111">Листов 9</text>
<text x="387.50" y="286.00" font-size="3.2" text-anchor="middle" fill="#111111" font-weight="bold">АО «ИНУМиТ»</text>
<text x="330.00" y="288.00" font-size="2.2" text-anchor="middle" fill="#666666">ТЕФКОТ 770 · реактор 50 л</text>
<text x="25.00" y="13.00" font-size="3.0" text-anchor="start" fill="#111111" font-weight="bold">E-1 КОНДЕНСАТОР СТЕКЛЯННЫЙ (Wiggens), б/м</text>
<path d="M62.00,26.00 L62.00,232.00" fill="none" stroke="#666666" stroke-width="0.18" stroke-dasharray="6 1.5 1 1.5" stroke-linejoin="round"/>
<path d="M53.00,52.00 L71.00,52.00 L71.00,196.00 L53.00,196.00 Z" fill="#eef6fb" stroke="#111111" stroke-width="0.7" stroke-linejoin="round"/>
<path d="M56.00,60.00 L68.00,63.00 L56.00,66.00 L68.00,69.00 L56.00,72.00 L68.00,75.00 L56.00,78.00 L68.00,81.00 L56.00,84.00 L68.00,87.00 L56.00,90.00 L68.00,93.00 L56.00,96.00 L68.00,99.00 L56.00,102.00 L68.00,105.00 L56.00,108.00 L68.00,111.00 L56.00,114.00 L68.00,117.00 L56.00,120.00 L68.00,123.00 L56.00,126.00 L68.00,129.00 L56.00,132.00 L68.00,135.00 L56.00,138.00 L68.00,141.00 L56.00,144.00 L68.00,147.00 L56.00,150.00 L68.00,153.00 L56.00,156.00 L68.00,159.00 L56.00,162.00 L68.00,165.00 L56.00,168.00 L68.00,171.00 L56.00,174.00 L68.00,177.00 L56.00,180.00 L68.00,183.00" fill="none" stroke="#0f6f6f" stroke-width="0.4" stroke-linejoin="round"/>
<text x="89.00" y="184.80" font-size="1.9" text-anchor="start" fill="#111111">вход теплоносителя (снизу)</text>
<text x="89.00" y="64.80" font-size="1.9" text-anchor="start" fill="#111111">выход теплоносителя (сверху)</text>
<text x="89.00" y="124.00" font-size="1.9" text-anchor="start" fill="#111111">оливы стеклянные → рукав EPDM + хомут</text>
<path d="M57.00,52.00 L67.00,52.00 L66.00,46.00 L58.00,46.00 Z" fill="#ffffff" stroke="#111111" stroke-width="0.5" stroke-linejoin="round"/>
<text x="55.00" y="50.00" font-size="1.9" text-anchor="end" fill="#c62828">шлиф NS ?</text>
<path d="M60.40,46.00 L63.60,46.00 L63.10,40.00 L60.90,40.00 Z" fill="#dddddd" stroke="#111111" stroke-width="0.4" stroke-linejoin="round"/>
<path d="M102.20,30.00 L100.00,30.90 L100.00,29.10 Z" fill="#111111" stroke="#111111" stroke-width="0.1" stroke-linejoin="round"/>
<text x="102.00" y="31.00" font-size="2.0" text-anchor="start" fill="#111111">рукав ¾″ на ёлочке (хомут) → штуцер шланговый кламп K25 → вход гребёнки (лист 4)</text>
<text x="67.00" y="45.00" font-size="1.8" text-anchor="start" fill="#c62828">переходник шлиф NS ? → ёлочка ¾″ (PTFE), не кламп</text>
<path d="M58.00,196.00 L66.00,196.00 L65.00,203.00 L59.00,203.00 Z" fill="#ffffff" stroke="#111111" stroke-width="0.5" stroke-linejoin="round"/>
<path d="M53.60,203.00 L70.40,203.00 L70.40,209.00 L53.60,209.00 Z" fill="#eeeeee" stroke="#111111" stroke-width="0.5" stroke-linejoin="round"/>
<text x="73.00" y="202.00" font-size="1.9" text-anchor="start" fill="#c62828">керн NS ? → переходник шлиф / кламп K50,5</text>
<text x="73.00" y="206.00" font-size="1.9" text-anchor="start" fill="#111111">(если нет в комплекте реактора)</text>
<path d="M53.60,207.60 L70.40,207.60 L70.40,208.70 L53.60,208.70 Z" fill="#ffffff" stroke="#111111" stroke-width="0.3" stroke-linejoin="round"/>
<path d="M53.60,209.30 L70.40,209.30 L70.40,210.40 L53.60,210.40 Z" fill="#ffffff" stroke="#111111" stroke-width="0.3" stroke-linejoin="round"/>
<path d="M53.00,207.20 L53.00,210.80" fill="none" stroke="#111111" stroke-width="0.5" stroke-linejoin="round"/>
<path d="M71.00,207.20 L71.00,210.80" fill="none" stroke="#111111" stroke-width="0.5" stroke-linejoin="round"/>
<circle cx="48.80" cy="209.00" r="2.90" fill="#ffffff" stroke="#1f5fa8" stroke-width="0.25"/>
<text x="48.80" y="209.90" font-size="2.0" text-anchor="middle" fill="#1f5fa8">203</text>
<path d="M48.00,216.00 L76.00,216.00" fill="none" stroke="#111111" stroke-width="0.8" stroke-linejoin="round"/>
<text x="62.00" y="221.00" font-size="2.0" text-anchor="middle" fill="#111111">крышка R-1, штуцер P1 (N3)</text>
<text x="51.00" y="120.00" font-size="2.6" text-anchor="end" fill="#111111" font-weight="bold">E-1</text>
<text x="51.00" y="125.00" font-size="1.8" text-anchor="end" fill="#111111">держатель —</text>
<text x="51.00" y="129.00" font-size="1.8" text-anchor="end" fill="#111111">хомут на раме</text>
<text x="112.00" y="13.00" font-size="3.0" text-anchor="start" fill="#111111" font-weight="bold">ПОДАЧА MeSiCl₃ / PDMS-OH НАСОСОМ P-3, б/м</text>
<path d="M150.00,64.00 L164.00,64.00 L164.00,74.00 L150.00,74.00 Z" fill="none" stroke="#111111" stroke-width="0.6" stroke-linejoin="round"/>
<path d="M148.00,60.00 L166.00,60.00 L166.00,64.00 L148.00,64.00 Z" fill="#eeeeee" stroke="#111111" stroke-width="0.6" stroke-linejoin="round"/>
<text x="157.00" y="106.00" font-size="2.6" text-anchor="middle" fill="#111111" font-weight="bold">MeSiCl₃</text>
<text x="157.00" y="111.00" font-size="2.6" text-anchor="middle" fill="#111111" font-weight="bold">PDMS-OH</text>
<text x="157.00" y="117.00" font-size="1.8" text-anchor="middle" fill="#111111">(тара поставщика)</text>
<path d="M161.00,64.00 L161.00,146.00" fill="none" stroke="#111111" stroke-width="0.3" stroke-dasharray="3 1.5" stroke-linejoin="round"/>
<path d="M137.00,150.00 L177.00,150.00 L177.00,155.00 L137.00,155.00 Z" fill="#f2f2f2" stroke="#111111" stroke-width="0.6" stroke-linejoin="round"/>
<text x="157.00" y="153.80" font-size="1.8" text-anchor="middle" fill="#111111">W-4 весы 15 кг</text>
<path d="M138.00,142.00 L138.00,150.00 L176.00,150.00 L176.00,142.00" fill="none" stroke="#111111" stroke-width="0.4" stroke-dasharray="3 1.5" stroke-linejoin="round"/>
<text x="137.00" y="144.00" font-size="1.7" text-anchor="end" fill="#111111">поддон</text>
<text x="153.00" y="34.00" font-size="2.0" text-anchor="middle" fill="#111111">Ar (A3) ¼″</text>
<text x="146.00" y="62.50" font-size="1.8" text-anchor="end" fill="#111111">крышка-переходник PTFE:</text>
<text x="146.00" y="66.00" font-size="1.8" text-anchor="end" fill="#111111">Ar + заборная трубка до дна</text>
<path d="M180.32,122.60 L183.68,127.40 L180.32,127.40 L183.68,122.60 Z" fill="#ffffff" stroke="#111111" stroke-width="0.3" stroke-linejoin="round"/>
<path d="M182.00,125.00 L185.12,125.00" fill="none" stroke="#111111" stroke-width="0.3" stroke-linejoin="round"/>
<path d="M185.12,123.50 L185.12,126.50" fill="none" stroke="#111111" stroke-width="0.4" stroke-linejoin="round"/>
<text x="185.50" y="126.00" font-size="1.9" text-anchor="start" fill="#111111">V-B1 ¼″</text>
<path d="M160.00,214.00 L176.00,214.00 L176.00,228.00 L160.00,228.00 Z" fill="#f2f2f2" stroke="#111111" stroke-width="0.6" stroke-linejoin="round"/>
<text x="168.00" y="222.00" font-size="2.2" text-anchor="middle" fill="#111111" font-weight="bold">P-3</text>
<text x="158.00" y="207.00" font-size="1.9" text-anchor="start" fill="#111111">дозирующий: перист. Chem-Sure</text>
<text x="158.00" y="210.50" font-size="1.9" text-anchor="start" fill="#111111">или мембр. PTFE / шприцевой</text>
<path d="M180.80,219.46 L185.20,222.54 L185.20,219.46 L180.80,222.54 Z" fill="#ffffff" stroke="#111111" stroke-width="0.3" stroke-linejoin="round"/>
<path d="M183.00,221.00 L183.00,218.14" fill="none" stroke="#111111" stroke-width="0.3" stroke-linejoin="round"/>
<path d="M181.50,218.14 L184.50,218.14" fill="none" stroke="#111111" stroke-width="0.4" stroke-linejoin="round"/>
<text x="181.00" y="227.00" font-size="1.8" text-anchor="start" fill="#111111">FV-1</text>
<path d="M193.76,221.00 L190.24,222.54 L190.24,219.46 Z" fill="#111111" stroke="#111111" stroke-width="0.3" stroke-linejoin="round"/>
<path d="M193.76,222.76 L193.76,219.24" fill="none" stroke="#111111" stroke-width="0.5" stroke-linejoin="round"/>
<text x="189.50" y="227.00" font-size="1.8" text-anchor="start" fill="#111111">NRV-4</text>
<text x="201.00" y="158.00" font-size="1.9" text-anchor="start" fill="#c62828">трубка PTFE ¼″, L=?</text>
<text x="210.00" y="13.00" font-size="3.0" text-anchor="start" fill="#111111" font-weight="bold">УЗЕЛ P3, б/м</text>
<path d="M208.00,232.00 L242.00,232.00" fill="none" stroke="#111111" stroke-width="0.8" stroke-linejoin="round"/>
<text x="210.00" y="236.00" font-size="2.0" text-anchor="start" fill="#111111">крышка R-1</text>
<path d="M221.80,223.60 L228.20,223.60 L228.20,224.70 L221.80,224.70 Z" fill="#ffffff" stroke="#111111" stroke-width="0.3" stroke-linejoin="round"/>
<path d="M221.80,225.30 L228.20,225.30 L228.20,226.40 L221.80,226.40 Z" fill="#ffffff" stroke="#111111" stroke-width="0.3" stroke-linejoin="round"/>
<path d="M221.20,223.20 L221.20,226.80" fill="none" stroke="#111111" stroke-width="0.5" stroke-linejoin="round"/>
<path d="M228.80,223.20 L228.80,226.80" fill="none" stroke="#111111" stroke-width="0.5" stroke-linejoin="round"/>
<circle cx="233.00" cy="225.00" r="2.90" fill="#ffffff" stroke="#1f5fa8" stroke-width="0.25"/>
<text x="233.00" y="225.90" font-size="2.0" text-anchor="middle" fill="#1f5fa8">204</text>
<path d="M222.50,216.00 L227.50,216.00 L230.00,224.00 L220.00,224.00 Z" fill="#ffffff" stroke="#111111" stroke-width="0.35" stroke-linejoin="round"/>
<path d="M221.80,212.60 L228.20,212.60 L228.20,213.70 L221.80,213.70 Z" fill="#ffffff" stroke="#111111" stroke-width="0.3" stroke-linejoin="round"/>
<path d="M221.80,214.30 L228.20,214.30 L228.20,215.40 L221.80,215.40 Z" fill="#ffffff" stroke="#111111" stroke-width="0.3" stroke-linejoin="round"/>
<path d="M221.20,212.20 L221.20,215.80" fill="none" stroke="#111111" stroke-width="0.5" stroke-linejoin="round"/>
<path d="M228.80,212.20 L228.80,215.80" fill="none" stroke="#111111" stroke-width="0.5" stroke-linejoin="round"/>
<circle cx="233.00" cy="214.00" r="2.90" fill="#ffffff" stroke="#1f5fa8" stroke-width="0.25"/>
<text x="233.00" y="214.90" font-size="2.0" text-anchor="middle" fill="#1f5fa8">301</text>
<path d="M222.76,202.80 L227.24,209.20 L222.76,209.20 L227.24,202.80 Z" fill="#ffffff" stroke="#111111" stroke-width="0.3" stroke-linejoin="round"/>
<path d="M225.00,206.00 L229.16,206.00" fill="none" stroke="#111111" stroke-width="0.3" stroke-linejoin="round"/>
<path d="M229.16,204.50 L229.16,207.50" fill="none" stroke="#111111" stroke-width="0.4" stroke-linejoin="round"/>
<text x="203.00" y="207.00" font-size="2.0" text-anchor="start" fill="#111111">V-P3 ½″</text>
<path d="M221.80,196.60 L228.20,196.60 L228.20,197.70 L221.80,197.70 Z" fill="#ffffff" stroke="#111111" stroke-width="0.3" stroke-linejoin="round"/>
<path d="M221.80,198.30 L228.20,198.30 L228.20,199.40 L221.80,199.40 Z" fill="#ffffff" stroke="#111111" stroke-width="0.3" stroke-linejoin="round"/>
<path d="M221.20,196.20 L221.20,199.80" fill="none" stroke="#111111" stroke-width="0.5" stroke-linejoin="round"/>
<path d="M228.80,196.20 L228.80,199.80" fill="none" stroke="#111111" stroke-width="0.5" stroke-linejoin="round"/>
<circle cx="233.00" cy="198.00" r="2.90" fill="#ffffff" stroke="#1f5fa8" stroke-width="0.25"/>
<text x="233.00" y="198.90" font-size="2.0" text-anchor="middle" fill="#1f5fa8">302</text>
<path d="M221.80,194.40 L228.20,194.40 L228.20,196.60 L221.80,196.60 Z" fill="#eeeeee" stroke="#111111" stroke-width="0.4" stroke-linejoin="round"/>
<text x="230.00" y="192.00" font-size="1.9" text-anchor="start" fill="#111111">заглушка ½″ + обжим ¼″</text>
<path d="M213.00,232.00 L214.50,232.00" fill="none" stroke="#111111" stroke-width="0.18" stroke-linejoin="round"/>
<path d="M213.00,194.40 L214.50,194.40" fill="none" stroke="#111111" stroke-width="0.18" stroke-linejoin="round"/>
<path d="M213.00,232.00 L213.00,194.40" fill="none" stroke="#111111" stroke-width="0.18" stroke-linejoin="round"/>
<path d="M213.00,232.00 L212.20,229.80 L213.80,229.80 Z" fill="#111111" stroke="#111111" stroke-width="0.1" stroke-linejoin="round"/>
<path d="M213.00,194.40 L213.80,196.60 L212.20,196.60 Z" fill="#111111" stroke="#111111" stroke-width="0.1" stroke-linejoin="round"/>
<text x="214.20" y="214.07" font-size="2.5" text-anchor="start" fill="#c62828">L=?</text>
<text x="268.00" y="112.00" font-size="3.0" text-anchor="start" fill="#111111" font-weight="bold">УЗЕЛ P2 (TI), б/м</text>
<path d="M280.00,128.00 L290.00,128.00 L290.00,131.00 L280.00,131.00 Z" fill="#eeeeee" stroke="#111111" stroke-width="0.5" stroke-linejoin="round"/>
<path d="M280.00,129.60 L290.00,129.60 L290.00,130.70 L280.00,130.70 Z" fill="#ffffff" stroke="#111111" stroke-width="0.3" stroke-linejoin="round"/>
<path d="M280.00,131.30 L290.00,131.30 L290.00,132.40 L280.00,132.40 Z" fill="#ffffff" stroke="#111111" stroke-width="0.3" stroke-linejoin="round"/>
<path d="M279.40,129.20 L279.40,132.80" fill="none" stroke="#111111" stroke-width="0.5" stroke-linejoin="round"/>
<path d="M290.60,129.20 L290.60,132.80" fill="none" stroke="#111111" stroke-width="0.5" stroke-linejoin="round"/>
<circle cx="275.20" cy="131.00" r="2.90" fill="#ffffff" stroke="#1f5fa8" stroke-width="0.25"/>
<text x="275.20" y="131.90" font-size="2.0" text-anchor="middle" fill="#1f5fa8">202</text>
<path d="M284.00,131.00 L286.00,131.00 L286.00,206.00 L284.00,206.00 Z" fill="none" stroke="#111111" stroke-width="0.4" stroke-linejoin="round"/>
<path d="M284.70,125.00 L284.70,205.00" fill="none" stroke="#666666" stroke-width="0.2" stroke-linejoin="round"/>
<path d="M285.00,128.00 L285.00,118.00" fill="none" stroke="#111111" stroke-width="0.4" stroke-linejoin="round"/>
<text x="288.00" y="124.00" font-size="1.9" text-anchor="start" fill="#111111">Pt100 Ø6 → чиллер</text>
<path d="M286.00,131.00 L293.50,131.00" fill="none" stroke="#111111" stroke-width="0.18" stroke-linejoin="round"/>
<path d="M286.00,206.00 L293.50,206.00" fill="none" stroke="#111111" stroke-width="0.18" stroke-linejoin="round"/>
<path d="M292.00,131.00 L292.00,206.00" fill="none" stroke="#111111" stroke-width="0.18" stroke-linejoin="round"/>
<path d="M292.00,131.00 L292.80,133.20 L291.20,133.20 Z" fill="#111111" stroke="#111111" stroke-width="0.1" stroke-linejoin="round"/>
<path d="M292.00,206.00 L291.20,203.80 L292.80,203.80 Z" fill="#111111" stroke="#111111" stroke-width="0.1" stroke-linejoin="round"/>
<text x="293.20" y="169.38" font-size="2.5" text-anchor="start" fill="#111111">500</text>
<text x="288.00" y="212.00" font-size="1.9" text-anchor="start" fill="#111111">Ø8×1, дно заварено</text>
<text x="330.00" y="112.00" font-size="3.0" text-anchor="start" fill="#111111" font-weight="bold">УЗЕЛ P4 (резерв), б/м</text>
<path d="M342.76,173.80 L347.24,180.20 L342.76,180.20 L347.24,173.80 Z" fill="#ffffff" stroke="#111111" stroke-width="0.3" stroke-linejoin="round"/>
<path d="M345.00,177.00 L349.16,177.00" fill="none" stroke="#111111" stroke-width="0.3" stroke-linejoin="round"/>
<path d="M349.16,175.50 L349.16,178.50" fill="none" stroke="#111111" stroke-width="0.4" stroke-linejoin="round"/>
<path d="M333.00,206.00 L357.00,206.00" fill="none" stroke="#111111" stroke-width="0.8" stroke-linejoin="round"/>
<text x="333.00" y="210.00" font-size="1.9" text-anchor="start" fill="#111111">крышка R-1</text>
<text x="351.00" y="178.00" font-size="1.9" text-anchor="start" fill="#111111">кран шаровой кламп (сущ.)</text>
<path d="M341.80,146.60 L348.20,146.60 L348.20,147.70 L341.80,147.70 Z" fill="#ffffff" stroke="#111111" stroke-width="0.3" stroke-linejoin="round"/>
<path d="M341.80,148.30 L348.20,148.30 L348.20,149.40 L341.80,149.40 Z" fill="#ffffff" stroke="#111111" stroke-width="0.3" stroke-linejoin="round"/>
<path d="M341.20,146.20 L341.20,149.80" fill="none" stroke="#111111" stroke-width="0.5" stroke-linejoin="round"/>
<path d="M348.80,146.20 L348.80,149.80" fill="none" stroke="#111111" stroke-width="0.5" stroke-linejoin="round"/>
<circle cx="353.00" cy="148.00" r="2.90" fill="#ffffff" stroke="#1f5fa8" stroke-width="0.25"/>
<text x="353.00" y="148.90" font-size="2.0" text-anchor="middle" fill="#1f5fa8">201</text>
<path d="M341.80,143.00 L348.20,143.00 L348.20,146.00 L341.80,146.00 Z" fill="#eeeeee" stroke="#111111" stroke-width="0.4" stroke-linejoin="round"/>
<text x="350.00" y="141.00" font-size="1.9" text-anchor="start" fill="#111111">PTFE-переходник с заглушкой (сущ.)</text>
<text x="333.00" y="215.00" font-size="1.9" text-anchor="start" fill="#111111">резервный штуцер</text>
<text x="300.00" y="20.00" font-size="2.8" text-anchor="start" fill="#111111" font-weight="bold">Примечания</text>
<text x="300.00" y="25.50" font-size="2.1" text-anchor="start" fill="#111111">1. E-1 — стеклянный змеевиковый конденсатор</text>
<text x="300.00" y="29.10" font-size="2.1" text-anchor="start" fill="#111111">   из комплекта Wiggens; шлифы NS — замерить.</text>
<text x="300.00" y="32.70" font-size="2.1" text-anchor="start" fill="#111111">2. Теплоноситель в змеевике — малый напор (стекло).</text>
<text x="300.00" y="36.30" font-size="2.1" text-anchor="start" fill="#111111">3. E-1 вертикально: конденсат стекает в R-1.</text>
<text x="300.00" y="39.90" font-size="2.1" text-anchor="start" fill="#111111">4. Теплоноситель E-1: свой чиллер TC-2</text>
<text x="300.00" y="43.50" font-size="2.1" text-anchor="start" fill="#111111">   (режимы — по регламенту).</text>
<text x="300.00" y="47.10" font-size="2.1" text-anchor="start" fill="#111111">5. Строительные длины кранов, тройников,</text>
<text x="300.00" y="50.70" font-size="2.1" text-anchor="start" fill="#c62828">   переходов — по каталогу Гросснер (?).</text>
<text x="300.00" y="54.30" font-size="2.1" text-anchor="start" fill="#111111">6. Все прокладки кламп — PTFE.</text>
<text x="300.00" y="57.90" font-size="2.1" text-anchor="start" fill="#111111">7. MeSiCl₃ / PDMS-OH — насосом P-3 прямо</text>
<text x="300.00" y="61.50" font-size="2.1" text-anchor="start" fill="#111111">   из тары на W-4; объём замещается Ar (A3).</text>
<text x="300.00" y="65.10" font-size="2.1" text-anchor="start" fill="#111111">   Расход по W-4, темп — по TI.</text>
<text x="45.40" y="209.60" font-size="1.7" text-anchor="end" fill="#1f5fa8">K50,5</text>
<text x="236.40" y="225.60" font-size="1.7" text-anchor="start" fill="#1f5fa8">K50,5</text>
<text x="236.40" y="214.60" font-size="1.7" text-anchor="start" fill="#1f5fa8">K25</text>
<text x="236.40" y="198.60" font-size="1.7" text-anchor="start" fill="#1f5fa8">K25</text>
<text x="271.80" y="131.60" font-size="1.7" text-anchor="end" fill="#1f5fa8">K50,5</text>
<text x="356.40" y="148.60" font-size="1.7" text-anchor="start" fill="#1f5fa8">K50,5</text>
</svg>