<svg xmlns="http://www.w3.org/2000/svg" viewBox="0 0 420.0 297.0" width="420.0mm" height="297.0mm" font-family="Arial, 'Liberation Sans', sans-serif"><rect width="100%" height="100%" fill="#fff"/>
<path d="M230.00,247.00 L295.00,247.00" fill="none" stroke="#111111" stroke-width="0.7" stroke-linejoin="round"/>
<path d="M230.00,252.00 L295.00,252.00" fill="none" stroke="#111111" stroke-width="0.7" stroke-linejoin="round"/>
<path d="M295.00,237.00 L295.00,292.00" fill="none" stroke="#111111" stroke-width="0.7" stroke-linejoin="round"/>
<path d="M295.00,252.00 L415.00,252.00" fill="none" stroke="#111111" stroke-width="0.7" stroke-linejoin="round"/>
<path d="M365.00,252.00 L365.00,292.00" fill="none" stroke="#111111" stroke-width="0.7" stroke-linejoin="round"/>
<path d="M295.00,277.00 L415.00,277.00" fill="none" stroke="#111111" stroke-width="0.7" stroke-linejoin="round"/>
<path d="M365.00,257.00 L415.00,257.00" fill="none" stroke="#111111" stroke-width="0.7" stroke-linejoin="round"/>
<path d="M365.00,272.00 L415.00,272.00" fill="none" stroke="#111111" stroke-width="0.7" stroke-linejoin="round"/>
<path d="M382.00,252.00 L382.00,272.00" fill="none" stroke="#111111" stroke-width="0.7" stroke-linejoin="round"/>
<path d="M397.00,252.00 L397.00,272.00" fill="none" stroke="#111111" stroke-width="0.7" stroke-linejoin="round"/>
<path d="M397.00,272.00 L397.00,277.00" fill="none" stroke="#111111" stroke-width="0.7" stroke-linejoin="round"/>
<path d="M32.00,150.00 L32.00,140.00 L44.00,140.00" fill="none" stroke="#333333" stroke-width="0.9" stroke-dasharray="3 1.5" stroke-linejoin="round"/>
<path d="M50.00,134.00 L50.00,131.80" fill="none" stroke="#333333" stroke-width="0.9" stroke-dasharray="3 1.5" stroke-linejoin="round"/>
<path d="M50.00,128.20 L50.00,126.00" fill="none" stroke="#111111" stroke-width="1.2" stroke-linejoin="round"/>
<path d="M50.00,122.00 L50.00,119.80" fill="none" stroke="#111111" stroke-width="1.2" stroke-linejoin="round"/>
<path d="M50.00,116.20 L50.00,113.76" fill="none" stroke="#111111" stroke-width="1.2" stroke-linejoin="round"/>
<path d="M50.00,110.24 L50.00,107.80" fill="none" stroke="#111111" stroke-width="1.2" stroke-linejoin="round"/>
<path d="M50.00,104.20 L50.00,95.00 L66.00,95.00 L66.00,97.00" fill="none" stroke="#333333" stroke-width="0.9" stroke-dasharray="3 1.5" stroke-linejoin="round"/>
<path d="M66.00,104.00 L66.00,97.00" fill="none" stroke="#111111" stroke-width="1.2" stroke-linejoin="round"/>
<path d="M74.50,104.00 L74.50,90.20" fill="none" stroke="#111111" stroke-width="1.2" stroke-linejoin="round"/>
<path d="M74.50,85.80 L74.50,79.80" fill="none" stroke="#111111" stroke-width="1.2" stroke-linejoin="round"/>
<path d="M74.50,76.20 L74.50,58.00 L100.00,58.00" fill="none" stroke="#333333" stroke-width="0.9" stroke-dasharray="3 1.5" stroke-linejoin="round"/>
<path d="M98.50,104.00 L98.50,92.20" fill="none" stroke="#111111" stroke-width="1.2" stroke-linejoin="round"/>
<path d="M98.50,85.80 L98.50,79.00" fill="none" stroke="#111111" stroke-width="1.2" stroke-linejoin="round"/>
<path d="M98.50,79.00 L98.50,72.00 L118.00,72.00 L118.00,218.00 L150.00,218.00 L150.00,214.20" fill="none" stroke="#333333" stroke-width="0.45" stroke-linejoin="round"/>
<path d="M150.00,65.80 L150.00,59.00 L172.50,59.00 L172.50,221.00 L195.00,221.00 L195.00,214.20" fill="none" stroke="#333333" stroke-width="0.45" stroke-linejoin="round"/>
<path d="M195.00,65.80 L195.00,55.00 L265.60,55.00" fill="none" stroke="#333333" stroke-width="0.45" stroke-linejoin="round"/>
<path d="M270.40,55.00 L276.40,55.00" fill="none" stroke="#333333" stroke-width="0.45" stroke-linejoin="round"/>
<path d="M281.30,55.00 L283.08,55.00" fill="none" stroke="#111111" stroke-width="1.0" stroke-linejoin="round"/>
<path d="M286.92,55.00 L288.70,55.00" fill="none" stroke="#111111" stroke-width="1.0" stroke-linejoin="round"/>
<path d="M293.60,55.00 L300.00,55.00" fill="none" stroke="#333333" stroke-width="0.45" stroke-linejoin="round"/>
<path d="M0.20,0.20 L419.80,0.20 L419.80,296.80 L0.20,296.80 Z" fill="none" stroke="#bbbbbb" stroke-width="0.1" stroke-linejoin="round"/>
<path d="M20.00,5.00 L415.00,5.00 L415.00,292.00 L20.00,292.00 Z" fill="none" stroke="#111111" stroke-width="0.7" stroke-linejoin="round"/>
<path d="M230.00,237.00 L415.00,237.00 L415.00,292.00 L230.00,292.00 Z" fill="none" stroke="#111111" stroke-width="0.7" stroke-linejoin="round"/>
<path d="M230.00,242.00 L295.00,242.00" fill="none" stroke="#111111" stroke-width="0.18" stroke-linejoin="round"/>
<path d="M230.00,257.00 L295.00,257.00" fill="none" stroke="#111111" stroke-width="0.18" stroke-linejoin="round"/>
<path d="M230.00,262.00 L295.00,262.00" fill="none" stroke="#111111" stroke-width="0.18" stroke-linejoin="round"/>
<path d="M230.00,267.00 L295.00,267.00" fill="none" stroke="#111111" stroke-width="0.18" stroke-linejoin="round"/>
<path d="M230.00,272.00 L295.00,272.00" fill="none" stroke="#111111" stroke-width="0.18" stroke-linejoin="round"/>
<path d="M230.00,277.00 L295.00,277.00" fill="none" stroke="#111111" stroke-width="0.18" stroke-linejoin="round"/>
<path d="M230.00,282.00 L295.00,282.00" fill="none" stroke="#111111" stroke-width="0.18" stroke-linejoin="round"/>
<path d="M230.00,287.00 L295.00,287.00" fill="none" stroke="#111111" stroke-width="0.18" stroke-linejoin="round"/>
<path d="M237.00,237.00 L237.00,292.00" fill="none" stroke="#111111" stroke-width="0.18" stroke-linejoin="round"/>
<path d="M247.00,237.00 L247.00,292.00" fill="none" stroke="#111111" stroke-width="0.18" stroke-linejoin="round"/>
<path d="M270.00,237.00 L270.00,292.00" fill="none" stroke="#111111" stroke-width="0.18" stroke-linejoin="round"/>
<path d="M285.00,237.00 L285.00,292.00" fill="none" stroke="#111111" stroke-width="0.18" stroke-linejoin="round"/>
<text x="230.60" y="251.20" font-size="1.8" text-anchor="start" fill="#111111">Изм.</text>
<text x="237.60" y="251.20" font-size="1.8" text-anchor="start" fill="#111111">Лист</text>
<text x="247.60" y="251.20" font-size="1.8" text-anchor="start" fill="#111111">№ докум.</text>
<text x="270.60" y="251.20" font-size="1.8" text-anchor="start" fill="#111111">Подп.</text>
<text x="285.60" y="251.20" font-size="1.8" text-anchor="start" fill="#111111">Дата</text>
<text x="230.60" y="256.20" font-size="1.8" text-anchor="start" fill="#111111">Разраб.</text>
<text x="230.60" y="261.20" font-size="1.8" text-anchor="start" fill="#111111">Пров.</text>
<text x="230.60" y="266.20" font-size="1.8" text-anchor="start" fill="#111111">Т.контр.</text>
<text x="230.60" y="276.20" font-size="1.8" text-anchor="start" fill="#111111">Н.контр.</text>
<text x="230.60" y="281.20" font-size="1.8" text-anchor="start" fill="#111111">Утв.</text>
<text x="355.00" y="246.50" font-size="4.2" text-anchor="middle" fill="#111111" font-weight="bold">ИНУМ.770-50.00.05</text>
<text x="330.00" y="259.70" font-size="2.9" text-anchor="middle" fill="#111111" font-weight="bold">Генератор метиламина G-1, осушка</text>
<text x="330.00" y="264.30" font-size="2.9" text-anchor="middle" fill="#111111">C-1, C-2</text>
<text x="369.00" y="255.80" font-size="1.9" text-anchor="start" fill="#111111">Лит.</text>
<text x="384.00" y="255.80" font-size="1.9" text-anchor="start" fill="#111111">Масса</text>
<text x="399.00" y="255.80" font-size="1.9" text-anchor="start" fill="#111111">Масштаб</text>
<text x="373.50" y="266.00" font-size="3" text-anchor="middle" fill="#111111">П</text>
<text x="389.50" y="266.00" font-size="3" text-anchor="middle" fill="#111111">—</text>
<text x="406.00" y="266.00" font-size="3" text-anchor="middle" fill="#111111">б/м</text>
<text x="367.00" y="275.80" font-size="2.2" text-anchor="start" fill="#111111">Лист 5</text>
<text x="399.00" y="275.80" font-size="2.2" text-anchor="start" fill="#111111">Листов 9</text>
<text x="387.50" y="286.00" font-size="3.2" text-anchor="middle" fill="#111111" font-weight="bold">АО «ИНУМиТ»</text>
<text x="330.00" y="288.00" font-size="2.2" text-anchor="middle" fill="#666666">ТЕФКОТ 770 · реактор 50 л</text>
<text x="25.00" y="13.00" font-size="3.0" text-anchor="start" fill="#111111" font-weight="bold">ГЕНЕРАЦИЯ И ОСУШКА МЕТИЛАМИНА, б/м (колонны М 1:5)</text>
<path d="M24.00,150.00 L40.00,150.00 L40.00,184.00 L24.00,184.00 Z" fill="#ffffff" stroke="#111111" stroke-width="0.5" stroke-linejoin="round"/>
<text x="24.00" y="146.00" font-size="2.4" text-anchor="start" fill="#111111" font-weight="bold">V-1</text>
<text x="24.00" y="190.00" font-size="1.8" text-anchor="start" fill="#111111">MeNH₂ 38%</text>
<path d="M22.00,186.00 L42.00,186.00 L42.00,188.00 L22.00,188.00 Z" fill="none" stroke="#666666" stroke-width="0.3" stroke-linejoin="round"/>
<text x="22.00" y="194.00" font-size="1.9" text-anchor="start" fill="#111111">W-1</text>
<path d="M44.00,134.00 L56.00,134.00 L56.00,146.00 L44.00,146.00 Z" fill="#f2f2f2" stroke="#111111" stroke-width="0.5" stroke-linejoin="round"/>
<text x="50.00" y="141.00" font-size="2.0" text-anchor="middle" fill="#111111" font-weight="bold">P-1</text>
<text x="22.00" y="120.00" font-size="1.8" text-anchor="start" fill="#111111">перистальтический</text>
<text x="22.00" y="124.00" font-size="1.8" text-anchor="start" fill="#111111">шланг силикон ¼″ (ID 6,4)</text>
<text x="22.00" y="128.00" font-size="1.8" text-anchor="start" fill="#111111">до G-1 — тот же</text>
<path d="M46.80,128.60 L53.20,128.60 L53.20,129.70 L46.80,129.70 Z" fill="#ffffff" stroke="#111111" stroke-width="0.3" stroke-linejoin="round"/>
<path d="M46.80,130.30 L53.20,130.30 L53.20,131.40 L46.80,131.40 Z" fill="#ffffff" stroke="#111111" stroke-width="0.3" stroke-linejoin="round"/>
<path d="M46.20,128.20 L46.20,131.80" fill="none" stroke="#111111" stroke-width="0.5" stroke-linejoin="round"/>
<path d="M53.80,128.20 L53.80,131.80" fill="none" stroke="#111111" stroke-width="0.5" stroke-linejoin="round"/>
<circle cx="42.00" cy="130.00" r="2.90" fill="#ffffff" stroke="#1f5fa8" stroke-width="0.25"/>
<text x="42.00" y="130.90" font-size="2.0" text-anchor="middle" fill="#1f5fa8">501</text>
<path d="M48.60,122.00 L51.40,126.00 L48.60,126.00 L51.40,122.00 Z" fill="#ffffff" stroke="#111111" stroke-width="0.3" stroke-linejoin="round"/>
<path d="M50.00,124.00 L52.60,124.00" fill="none" stroke="#111111" stroke-width="0.3" stroke-linejoin="round"/>
<path d="M52.60,122.50 L52.60,125.50" fill="none" stroke="#111111" stroke-width="0.4" stroke-linejoin="round"/>
<text x="54.00" y="125.00" font-size="1.8" text-anchor="start" fill="#111111" font-weight="bold">V-P1</text>
<path d="M46.80,116.60 L53.20,116.60 L53.20,117.70 L46.80,117.70 Z" fill="#ffffff" stroke="#111111" stroke-width="0.3" stroke-linejoin="round"/>
<path d="M46.80,118.30 L53.20,118.30 L53.20,119.40 L46.80,119.40 Z" fill="#ffffff" stroke="#111111" stroke-width="0.3" stroke-linejoin="round"/>
<path d="M46.20,116.20 L46.20,119.80" fill="none" stroke="#111111" stroke-width="0.5" stroke-linejoin="round"/>
<path d="M53.80,116.20 L53.80,119.80" fill="none" stroke="#111111" stroke-width="0.5" stroke-linejoin="round"/>
<circle cx="42.00" cy="118.00" r="2.90" fill="#ffffff" stroke="#1f5fa8" stroke-width="0.25"/>
<text x="42.00" y="118.90" font-size="2.0" text-anchor="middle" fill="#1f5fa8">502</text>
<path d="M50.00,110.24 L51.54,113.76 L48.46,113.76 Z" fill="#111111" stroke="#111111" stroke-width="0.3" stroke-linejoin="round"/>
<path d="M51.76,110.24 L48.24,110.24" fill="none" stroke="#111111" stroke-width="0.5" stroke-linejoin="round"/>
<text x="54.00" y="113.00" font-size="1.8" text-anchor="start" fill="#111111" font-weight="bold">NRV-6</text>
<path d="M46.80,104.60 L53.20,104.60 L53.20,105.70 L46.80,105.70 Z" fill="#ffffff" stroke="#111111" stroke-width="0.3" stroke-linejoin="round"/>
<path d="M46.80,106.30 L53.20,106.30 L53.20,107.40 L46.80,107.40 Z" fill="#ffffff" stroke="#111111" stroke-width="0.3" stroke-linejoin="round"/>
<path d="M46.20,104.20 L46.20,107.80" fill="none" stroke="#111111" stroke-width="0.5" stroke-linejoin="round"/>
<path d="M53.80,104.20 L53.80,107.80" fill="none" stroke="#111111" stroke-width="0.5" stroke-linejoin="round"/>
<circle cx="42.00" cy="106.00" r="2.90" fill="#ffffff" stroke="#1f5fa8" stroke-width="0.25"/>
<text x="42.00" y="106.90" font-size="2.0" text-anchor="middle" fill="#1f5fa8">503</text>
<path d="M60.00,112.00 L108.00,112.00 L108.00,200.00 L60.00,200.00 Z" fill="none" stroke="#111111" stroke-width="0.7" stroke-linejoin="round"/>
<path d="M58.00,108.00 L110.00,108.00 L110.00,112.00 L58.00,112.00 Z" fill="#eeeeee" stroke="#111111" stroke-width="0.6" stroke-linejoin="round"/>
<path d="M62.00,178.00 L106.00,178.00 L106.00,198.00 L62.00,198.00 Z" fill="#f6f6f6" stroke="#111111" stroke-width="0.2" stroke-linejoin="round"/>
<text x="65.00" y="190.00" font-size="1.9" text-anchor="start" fill="#111111">NaOH 8,37 кг + р-р</text>
<path d="M66.00,104.00 L66.00,196.00" fill="none" stroke="#111111" stroke-width="0.5" stroke-linejoin="round"/>
<text x="62.50" y="170.00" font-size="1.8" text-anchor="start" fill="#111111">сифон</text>
<path d="M63.50,104.00 L68.50,104.00 L68.50,108.00 L63.50,108.00 Z" fill="none" stroke="#111111" stroke-width="0.4" stroke-linejoin="round"/>
<path d="M62.80,98.60 L69.20,98.60 L69.20,99.70 L62.80,99.70 Z" fill="#ffffff" stroke="#111111" stroke-width="0.3" stroke-linejoin="round"/>
<path d="M62.80,100.30 L69.20,100.30 L69.20,101.40 L62.80,101.40 Z" fill="#ffffff" stroke="#111111" stroke-width="0.3" stroke-linejoin="round"/>
<path d="M62.20,98.20 L62.20,101.80" fill="none" stroke="#111111" stroke-width="0.5" stroke-linejoin="round"/>
<path d="M69.80,98.20 L69.80,101.80" fill="none" stroke="#111111" stroke-width="0.5" stroke-linejoin="round"/>
<circle cx="58.00" cy="100.00" r="2.90" fill="#ffffff" stroke="#1f5fa8" stroke-width="0.25"/>
<text x="58.00" y="100.90" font-size="2.0" text-anchor="middle" fill="#1f5fa8">504</text>
<text x="72.00" y="130.00" font-size="3" text-anchor="start" fill="#111111" font-weight="bold">G-1</text>
<text x="72.00" y="135.00" font-size="2.0" text-anchor="start" fill="#111111">Altmaler БК-40</text>
<text x="72.00" y="139.00" font-size="2.0" text-anchor="start" fill="#c62828">Ø? × H?</text>
<path d="M80.00,92.00 L87.00,92.00 L87.00,108.00 L80.00,108.00 Z" fill="#eeeeee" stroke="#111111" stroke-width="0.4" stroke-linejoin="round"/>
<path d="M83.50,108.00 L83.50,170.00" fill="none" stroke="#111111" stroke-width="0.4" stroke-linejoin="round"/>
<text x="72.00" y="143.00" font-size="1.8" text-anchor="start" fill="#111111">пневмомешалка — не включать</text>
<path d="M72.00,104.00 L77.00,104.00 L77.00,108.00 L72.00,108.00 Z" fill="none" stroke="#111111" stroke-width="0.4" stroke-linejoin="round"/>
<text x="71.50" y="103.60" font-size="1.9" text-anchor="end" fill="#111111">G½″</text>
<path d="M71.30,94.60 L77.70,94.60 L77.70,95.70 L71.30,95.70 Z" fill="#ffffff" stroke="#111111" stroke-width="0.3" stroke-linejoin="round"/>
<path d="M71.30,96.30 L77.70,96.30 L77.70,97.40 L71.30,97.40 Z" fill="#ffffff" stroke="#111111" stroke-width="0.3" stroke-linejoin="round"/>
<path d="M70.70,94.20 L70.70,97.80" fill="none" stroke="#111111" stroke-width="0.5" stroke-linejoin="round"/>
<path d="M78.30,94.20 L78.30,97.80" fill="none" stroke="#111111" stroke-width="0.5" stroke-linejoin="round"/>
<circle cx="82.50" cy="96.00" r="2.90" fill="#ffffff" stroke="#1f5fa8" stroke-width="0.25"/>
<text x="82.50" y="96.90" font-size="2.0" text-anchor="middle" fill="#1f5fa8">505</text>
<path d="M72.96,85.80 L76.04,90.20 L72.96,90.20 L76.04,85.80 Z" fill="#ffffff" stroke="#111111" stroke-width="0.3" stroke-linejoin="round"/>
<path d="M74.50,88.00 L77.36,88.00" fill="none" stroke="#111111" stroke-width="0.3" stroke-linejoin="round"/>
<path d="M77.36,86.50 L77.36,89.50" fill="none" stroke="#111111" stroke-width="0.4" stroke-linejoin="round"/>
<text x="78.00" y="89.00" font-size="1.9" text-anchor="start" fill="#111111">SV-G1</text>
<path d="M71.30,76.60 L77.70,76.60 L77.70,77.70 L71.30,77.70 Z" fill="#ffffff" stroke="#111111" stroke-width="0.3" stroke-linejoin="round"/>
<path d="M71.30,78.30 L77.70,78.30 L77.70,79.40 L71.30,79.40 Z" fill="#ffffff" stroke="#111111" stroke-width="0.3" stroke-linejoin="round"/>
<path d="M70.70,76.20 L70.70,79.80" fill="none" stroke="#111111" stroke-width="0.5" stroke-linejoin="round"/>
<path d="M78.30,76.20 L78.30,79.80" fill="none" stroke="#111111" stroke-width="0.5" stroke-linejoin="round"/>
<circle cx="66.50" cy="78.00" r="2.90" fill="#ffffff" stroke="#1f5fa8" stroke-width="0.25"/>
<text x="66.50" y="78.90" font-size="2.0" text-anchor="middle" fill="#1f5fa8">506</text>
<path d="M102.20,58.00 L100.00,58.90 L100.00,57.10 Z" fill="#111111" stroke="#111111" stroke-width="0.1" stroke-linejoin="round"/>
<text x="102.00" y="59.00" font-size="1.9" text-anchor="start" fill="#111111">→ коллектор сбросов (смежники), силикон ¾″</text>
<path d="M91.50,108.00 L91.50,103.00" fill="none" stroke="#111111" stroke-width="0.3" stroke-linejoin="round"/>
<circle cx="91.50" cy="100.50" r="2.50" fill="#ffffff" stroke="#111111" stroke-width="0.3"/>
<text x="91.50" y="101.20" font-size="1.5" text-anchor="middle" fill="#111111">PI</text>
<text x="91.50" y="96.00" font-size="1.9" text-anchor="middle" fill="#111111">PI-3</text>
<path d="M96.00,104.00 L101.00,104.00 L101.00,108.00 L96.00,108.00 Z" fill="none" stroke="#111111" stroke-width="0.4" stroke-linejoin="round"/>
<text x="103.00" y="106.00" font-size="1.9" text-anchor="start" fill="#111111">G¼″</text>
<path d="M95.30,95.60 L101.70,95.60 L101.70,96.70 L95.30,96.70 Z" fill="#ffffff" stroke="#111111" stroke-width="0.3" stroke-linejoin="round"/>
<path d="M95.30,97.30 L101.70,97.30 L101.70,98.40 L95.30,98.40 Z" fill="#ffffff" stroke="#111111" stroke-width="0.3" stroke-linejoin="round"/>
<path d="M94.70,95.20 L94.70,98.80" fill="none" stroke="#111111" stroke-width="0.5" stroke-linejoin="round"/>
<path d="M102.30,95.20 L102.30,98.80" fill="none" stroke="#111111" stroke-width="0.5" stroke-linejoin="round"/>
<circle cx="106.50" cy="97.00" r="2.90" fill="#ffffff" stroke="#1f5fa8" stroke-width="0.25"/>
<text x="106.50" y="97.90" font-size="2.0" text-anchor="middle" fill="#1f5fa8">507</text>
<path d="M96.26,85.80 L100.74,92.20 L96.26,92.20 L100.74,85.80 Z" fill="#ffffff" stroke="#111111" stroke-width="0.3" stroke-linejoin="round"/>
<path d="M98.50,89.00 L102.66,89.00" fill="none" stroke="#111111" stroke-width="0.3" stroke-linejoin="round"/>
<path d="M102.66,87.50 L102.66,90.50" fill="none" stroke="#111111" stroke-width="0.4" stroke-linejoin="round"/>
<text x="104.50" y="90.00" font-size="2.0" text-anchor="start" fill="#111111">V-G1</text>
<path d="M95.30,79.60 L101.70,79.60 L101.70,80.70 L95.30,80.70 Z" fill="#ffffff" stroke="#111111" stroke-width="0.3" stroke-linejoin="round"/>
<path d="M95.30,81.30 L101.70,81.30 L101.70,82.40 L95.30,82.40 Z" fill="#ffffff" stroke="#111111" stroke-width="0.3" stroke-linejoin="round"/>
<path d="M94.70,79.20 L94.70,82.80" fill="none" stroke="#111111" stroke-width="0.5" stroke-linejoin="round"/>
<path d="M102.30,79.20 L102.30,82.80" fill="none" stroke="#111111" stroke-width="0.5" stroke-linejoin="round"/>
<circle cx="106.50" cy="81.00" r="2.90" fill="#ffffff" stroke="#1f5fa8" stroke-width="0.25"/>
<text x="106.50" y="81.90" font-size="2.0" text-anchor="middle" fill="#1f5fa8">508</text>
<text x="72.00" y="147.00" font-size="1.8" text-anchor="start" fill="#c62828">лючок Ø? (загрузка NaOH)</text>
<path d="M50.00,200.50 L118.00,200.50 L118.00,203.50 L50.00,203.50 Z" fill="#eeeeee" stroke="#111111" stroke-width="0.4" stroke-linejoin="round"/>
<text x="52.00" y="208.00" font-size="2.0" text-anchor="start" fill="#111111">W-2 весы 60 кг</text>
<path d="M60.00,200.00 L60.00,227.50" fill="none" stroke="#111111" stroke-width="0.18" stroke-linejoin="round"/>
<path d="M108.00,200.00 L108.00,227.50" fill="none" stroke="#111111" stroke-width="0.18" stroke-linejoin="round"/>
<path d="M60.00,226.00 L108.00,226.00" fill="none" stroke="#111111" stroke-width="0.18" stroke-linejoin="round"/>
<path d="M60.00,226.00 L62.20,225.20 L62.20,226.80 Z" fill="#111111" stroke="#111111" stroke-width="0.1" stroke-linejoin="round"/>
<path d="M108.00,226.00 L105.80,226.80 L105.80,225.20 Z" fill="#111111" stroke="#111111" stroke-width="0.1" stroke-linejoin="round"/>
<text x="84.00" y="225.20" font-size="2.5" text-anchor="middle" fill="#c62828">Ø? бака</text>
<path d="M142.38,80.00 L157.62,80.00 L157.62,200.00 L142.38,200.00 Z" fill="#f7f7f7" stroke="#111111" stroke-width="0.7" stroke-linejoin="round"/>
<path d="M142.38,80.00 L157.62,80.00 L157.62,120.00 L142.38,120.00 Z" fill="#eef6fb" stroke="#111111" stroke-width="0.7" stroke-linejoin="round"/>
<path d="M146.19,81.00 L146.19,119.00" fill="none" stroke="#666666" stroke-width="0.2" stroke-linejoin="round"/>
<path d="M153.81,81.00 L153.81,119.00" fill="none" stroke="#666666" stroke-width="0.2" stroke-linejoin="round"/>
<path d="M140.88,118.60 L159.12,118.60 L159.12,119.70 L140.88,119.70 Z" fill="#ffffff" stroke="#111111" stroke-width="0.3" stroke-linejoin="round"/>
<path d="M140.88,120.30 L159.12,120.30 L159.12,121.40 L140.88,121.40 Z" fill="#ffffff" stroke="#111111" stroke-width="0.3" stroke-linejoin="round"/>
<path d="M140.28,118.20 L140.28,121.80" fill="none" stroke="#111111" stroke-width="0.5" stroke-linejoin="round"/>
<path d="M159.72,118.20 L159.72,121.80" fill="none" stroke="#111111" stroke-width="0.5" stroke-linejoin="round"/>
<circle cx="136.08" cy="120.00" r="2.90" fill="#ffffff" stroke="#1f5fa8" stroke-width="0.25"/>
<text x="136.08" y="120.90" font-size="2.0" text-anchor="middle" fill="#1f5fa8">509</text>
<text x="140.88" y="105.00" font-size="2.6" text-anchor="end" fill="#111111" font-weight="bold">C-1</text>
<text x="150.00" y="229.00" font-size="1.8" text-anchor="middle" fill="#111111">сита 3A ≈1,8 кг (2,5 л)</text>
<text x="150.00" y="233.00" font-size="1.8" text-anchor="middle" fill="#111111">диоптр 200 + царга 400</text>
<path d="M140.88,78.60 L159.12,78.60 L159.12,79.70 L140.88,79.70 Z" fill="#ffffff" stroke="#111111" stroke-width="0.3" stroke-linejoin="round"/>
<path d="M140.88,80.30 L159.12,80.30 L159.12,81.40 L140.88,81.40 Z" fill="#ffffff" stroke="#111111" stroke-width="0.3" stroke-linejoin="round"/>
<path d="M140.28,78.20 L140.28,81.80" fill="none" stroke="#111111" stroke-width="0.5" stroke-linejoin="round"/>
<path d="M159.72,78.20 L159.72,81.80" fill="none" stroke="#111111" stroke-width="0.5" stroke-linejoin="round"/>
<circle cx="136.08" cy="80.00" r="2.90" fill="#ffffff" stroke="#1f5fa8" stroke-width="0.25"/>
<text x="136.08" y="80.90" font-size="2.0" text-anchor="middle" fill="#1f5fa8">510</text>
<path d="M142.38,80.00 L157.62,80.00 L153.20,76.00 L146.80,76.00 Z" fill="#ffffff" stroke="#111111" stroke-width="0.35" stroke-linejoin="round"/>
<path d="M146.80,72.80 L153.20,72.80 L153.20,73.90 L146.80,73.90 Z" fill="#ffffff" stroke="#111111" stroke-width="0.3" stroke-linejoin="round"/>
<path d="M146.80,74.50 L153.20,74.50 L153.20,75.60 L146.80,75.60 Z" fill="#ffffff" stroke="#111111" stroke-width="0.3" stroke-linejoin="round"/>
<path d="M146.20,72.40 L146.20,76.00" fill="none" stroke="#111111" stroke-width="0.5" stroke-linejoin="round"/>
<path d="M153.80,72.40 L153.80,76.00" fill="none" stroke="#111111" stroke-width="0.5" stroke-linejoin="round"/>
<circle cx="142.00" cy="74.20" r="2.90" fill="#ffffff" stroke="#1f5fa8" stroke-width="0.25"/>
<text x="142.00" y="75.10" font-size="2.0" text-anchor="middle" fill="#1f5fa8">511</text>
<path d="M146.80,72.40 L153.20,72.40 L151.80,69.40 L148.20,69.40 Z" fill="#ffffff" stroke="#111111" stroke-width="0.35" stroke-linejoin="round"/>
<path d="M146.80,66.20 L153.20,66.20 L153.20,67.30 L146.80,67.30 Z" fill="#ffffff" stroke="#111111" stroke-width="0.3" stroke-linejoin="round"/>
<path d="M146.80,67.90 L153.20,67.90 L153.20,69.00 L146.80,69.00 Z" fill="#ffffff" stroke="#111111" stroke-width="0.3" stroke-linejoin="round"/>
<path d="M146.20,65.80 L146.20,69.40" fill="none" stroke="#111111" stroke-width="0.5" stroke-linejoin="round"/>
<path d="M153.80,65.80 L153.80,69.40" fill="none" stroke="#111111" stroke-width="0.5" stroke-linejoin="round"/>
<circle cx="158.00" cy="67.60" r="2.90" fill="#ffffff" stroke="#1f5fa8" stroke-width="0.25"/>
<text x="158.00" y="68.50" font-size="2.0" text-anchor="middle" fill="#1f5fa8">512</text>
<path d="M142.38,200.00 L157.62,200.00 L153.20,204.00 L146.80,204.00 Z" fill="#ffffff" stroke="#111111" stroke-width="0.35" stroke-linejoin="round"/>
<path d="M146.80,204.40 L153.20,204.40 L153.20,205.50 L146.80,205.50 Z" fill="#ffffff" stroke="#111111" stroke-width="0.3" stroke-linejoin="round"/>
<path d="M146.80,206.10 L153.20,206.10 L153.20,207.20 L146.80,207.20 Z" fill="#ffffff" stroke="#111111" stroke-width="0.3" stroke-linejoin="round"/>
<path d="M146.20,204.00 L146.20,207.60" fill="none" stroke="#111111" stroke-width="0.5" stroke-linejoin="round"/>
<path d="M153.80,204.00 L153.80,207.60" fill="none" stroke="#111111" stroke-width="0.5" stroke-linejoin="round"/>
<circle cx="158.00" cy="205.80" r="2.90" fill="#ffffff" stroke="#1f5fa8" stroke-width="0.25"/>
<text x="158.00" y="206.70" font-size="2.0" text-anchor="middle" fill="#1f5fa8">513</text>
<path d="M146.80,207.60 L153.20,207.60 L151.80,210.60 L148.20,210.60 Z" fill="#ffffff" stroke="#111111" stroke-width="0.35" stroke-linejoin="round"/>
<path d="M146.80,211.00 L153.20,211.00 L153.20,212.10 L146.80,212.10 Z" fill="#ffffff" stroke="#111111" stroke-width="0.3" stroke-linejoin="round"/>
<path d="M146.80,212.70 L153.20,212.70 L153.20,213.80 L146.80,213.80 Z" fill="#ffffff" stroke="#111111" stroke-width="0.3" stroke-linejoin="round"/>
<path d="M146.20,210.60 L146.20,214.20" fill="none" stroke="#111111" stroke-width="0.5" stroke-linejoin="round"/>
<path d="M153.80,210.60 L153.80,214.20" fill="none" stroke="#111111" stroke-width="0.5" stroke-linejoin="round"/>
<circle cx="142.00" cy="212.40" r="2.90" fill="#ffffff" stroke="#1f5fa8" stroke-width="0.25"/>
<text x="142.00" y="213.30" font-size="2.0" text-anchor="middle" fill="#1f5fa8">514</text>
<path d="M140.88,198.60 L159.12,198.60 L159.12,199.70 L140.88,199.70 Z" fill="#ffffff" stroke="#111111" stroke-width="0.3" stroke-linejoin="round"/>
<path d="M140.88,200.30 L159.12,200.30 L159.12,201.40 L140.88,201.40 Z" fill="#ffffff" stroke="#111111" stroke-width="0.3" stroke-linejoin="round"/>
<path d="M140.28,198.20 L140.28,201.80" fill="none" stroke="#111111" stroke-width="0.5" stroke-linejoin="round"/>
<path d="M159.72,198.20 L159.72,201.80" fill="none" stroke="#111111" stroke-width="0.5" stroke-linejoin="round"/>
<circle cx="136.08" cy="200.00" r="2.90" fill="#ffffff" stroke="#1f5fa8" stroke-width="0.25"/>
<text x="136.08" y="200.90" font-size="2.0" text-anchor="middle" fill="#1f5fa8">515</text>
<path d="M142.38,199.00 L157.62,199.00" fill="none" stroke="#111111" stroke-width="0.25" stroke-dasharray="0.6 1" stroke-linejoin="round"/>
<path d="M157.62,80.00 L164.12,80.00" fill="none" stroke="#111111" stroke-width="0.18" stroke-linejoin="round"/>
<path d="M157.62,200.00 L164.12,200.00" fill="none" stroke="#111111" stroke-width="0.18" stroke-linejoin="round"/>
<path d="M162.62,80.00 L162.62,200.00" fill="none" stroke="#111111" stroke-width="0.18" stroke-linejoin="round"/>
<path d="M162.62,80.00 L163.42,82.20 L161.82,82.20 Z" fill="#111111" stroke="#111111" stroke-width="0.1" stroke-linejoin="round"/>
<path d="M162.62,200.00 L161.82,197.80 L163.42,197.80 Z" fill="#111111" stroke="#111111" stroke-width="0.1" stroke-linejoin="round"/>
<text x="163.82" y="140.88" font-size="2.5" text-anchor="start" fill="#111111">600</text>
<path d="M187.38,80.00 L202.62,80.00 L202.62,200.00 L187.38,200.00 Z" fill="#f7f7f7" stroke="#111111" stroke-width="0.7" stroke-linejoin="round"/>
<path d="M187.38,80.00 L202.62,80.00 L202.62,120.00 L187.38,120.00 Z" fill="#eef6fb" stroke="#111111" stroke-width="0.7" stroke-linejoin="round"/>
<path d="M191.19,81.00 L191.19,119.00" fill="none" stroke="#666666" stroke-width="0.2" stroke-linejoin="round"/>
<path d="M198.81,81.00 L198.81,119.00" fill="none" stroke="#666666" stroke-width="0.2" stroke-linejoin="round"/>
<path d="M185.88,118.60 L204.12,118.60 L204.12,119.70 L185.88,119.70 Z" fill="#ffffff" stroke="#111111" stroke-width="0.3" stroke-linejoin="round"/>
<path d="M185.88,120.30 L204.12,120.30 L204.12,121.40 L185.88,121.40 Z" fill="#ffffff" stroke="#111111" stroke-width="0.3" stroke-linejoin="round"/>
<path d="M185.28,118.20 L185.28,121.80" fill="none" stroke="#111111" stroke-width="0.5" stroke-linejoin="round"/>
<path d="M204.72,118.20 L204.72,121.80" fill="none" stroke="#111111" stroke-width="0.5" stroke-linejoin="round"/>
<circle cx="181.08" cy="120.00" r="2.90" fill="#ffffff" stroke="#1f5fa8" stroke-width="0.25"/>
<text x="181.08" y="120.90" font-size="2.0" text-anchor="middle" fill="#1f5fa8">516</text>
<text x="185.88" y="105.00" font-size="2.6" text-anchor="end" fill="#111111" font-weight="bold">C-2</text>
<text x="195.00" y="229.00" font-size="1.8" text-anchor="middle" fill="#111111">NaOH/KOH ≈2,7 кг</text>
<text x="195.00" y="233.00" font-size="1.8" text-anchor="middle" fill="#111111">диоптр 200 + царга 400</text>
<path d="M185.88,78.60 L204.12,78.60 L204.12,79.70 L185.88,79.70 Z" fill="#ffffff" stroke="#111111" stroke-width="0.3" stroke-linejoin="round"/>
<path d="M185.88,80.30 L204.12,80.30 L204.12,81.40 L185.88,81.40 Z" fill="#ffffff" stroke="#111111" stroke-width="0.3" stroke-linejoin="round"/>
<path d="M185.28,78.20 L185.28,81.80" fill="none" stroke="#111111" stroke-width="0.5" stroke-linejoin="round"/>
<path d="M204.72,78.20 L204.72,81.80" fill="none" stroke="#111111" stroke-width="0.5" stroke-linejoin="round"/>
<circle cx="181.08" cy="80.00" r="2.90" fill="#ffffff" stroke="#1f5fa8" stroke-width="0.25"/>
<text x="181.08" y="80.90" font-size="2.0" text-anchor="middle" fill="#1f5fa8">517</text>
<path d="M187.38,80.00 L202.62,80.00 L198.20,76.00 L191.80,76.00 Z" fill="#ffffff" stroke="#111111" stroke-width="0.35" stroke-linejoin="round"/>
<path d="M191.80,72.80 L198.20,72.80 L198.20,73.90 L191.80,73.90 Z" fill="#ffffff" stroke="#111111" stroke-width="0.3" stroke-linejoin="round"/>
<path d="M191.80,74.50 L198.20,74.50 L198.20,75.60 L191.80,75.60 Z" fill="#ffffff" stroke="#111111" stroke-width="0.3" stroke-linejoin="round"/>
<path d="M191.20,72.40 L191.20,76.00" fill="none" stroke="#111111" stroke-width="0.5" stroke-linejoin="round"/>
<path d="M198.80,72.40 L198.80,76.00" fill="none" stroke="#111111" stroke-width="0.5" stroke-linejoin="round"/>
<circle cx="187.00" cy="74.20" r="2.90" fill="#ffffff" stroke="#1f5fa8" stroke-width="0.25"/>
<text x="187.00" y="75.10" font-size="2.0" text-anchor="middle" fill="#1f5fa8">518</text>
<path d="M191.80,72.40 L198.20,72.40 L196.80,69.40 L193.20,69.40 Z" fill="#ffffff" stroke="#111111" stroke-width="0.35" stroke-linejoin="round"/>
<path d="M191.80,66.20 L198.20,66.20 L198.20,67.30 L191.80,67.30 Z" fill="#ffffff" stroke="#111111" stroke-width="0.3" stroke-linejoin="round"/>
<path d="M191.80,67.90 L198.20,67.90 L198.20,69.00 L191.80,69.00 Z" fill="#ffffff" stroke="#111111" stroke-width="0.3" stroke-linejoin="round"/>
<path d="M191.20,65.80 L191.20,69.40" fill="none" stroke="#111111" stroke-width="0.5" stroke-linejoin="round"/>
<path d="M198.80,65.80 L198.80,69.40" fill="none" stroke="#111111" stroke-width="0.5" stroke-linejoin="round"/>
<circle cx="203.00" cy="67.60" r="2.90" fill="#ffffff" stroke="#1f5fa8" stroke-width="0.25"/>
<text x="203.00" y="68.50" font-size="2.0" text-anchor="middle" fill="#1f5fa8">519</text>
<path d="M187.38,200.00 L202.62,200.00 L198.20,204.00 L191.80,204.00 Z" fill="#ffffff" stroke="#111111" stroke-width="0.35" stroke-linejoin="round"/>
<path d="M191.80,204.40 L198.20,204.40 L198.20,205.50 L191.80,205.50 Z" fill="#ffffff" stroke="#111111" stroke-width="0.3" stroke-linejoin="round"/>
<path d="M191.80,206.10 L198.20,206.10 L198.20,207.20 L191.80,207.20 Z" fill="#ffffff" stroke="#111111" stroke-width="0.3" stroke-linejoin="round"/>
<path d="M191.20,204.00 L191.20,207.60" fill="none" stroke="#111111" stroke-width="0.5" stroke-linejoin="round"/>
<path d="M198.80,204.00 L198.80,207.60" fill="none" stroke="#111111" stroke-width="0.5" stroke-linejoin="round"/>
<circle cx="203.00" cy="205.80" r="2.90" fill="#ffffff" stroke="#1f5fa8" stroke-width="0.25"/>
<text x="203.00" y="206.70" font-size="2.0" text-anchor="middle" fill="#1f5fa8">520</text>
<path d="M191.80,207.60 L198.20,207.60 L196.80,210.60 L193.20,210.60 Z" fill="#ffffff" stroke="#111111" stroke-width="0.35" stroke-linejoin="round"/>
<path d="M191.80,211.00 L198.20,211.00 L198.20,212.10 L191.80,212.10 Z" fill="#ffffff" stroke="#111111" stroke-width="0.3" stroke-linejoin="round"/>
<path d="M191.80,212.70 L198.20,212.70 L198.20,213.80 L191.80,213.80 Z" fill="#ffffff" stroke="#111111" stroke-width="0.3" stroke-linejoin="round"/>
<path d="M191.20,210.60 L191.20,214.20" fill="none" stroke="#111111" stroke-width="0.5" stroke-linejoin="round"/>
<path d="M198.80,210.60 L198.80,214.20" fill="none" stroke="#111111" stroke-width="0.5" stroke-linejoin="round"/>
<circle cx="187.00" cy="212.40" r="2.90" fill="#ffffff" stroke="#1f5fa8" stroke-width="0.25"/>
<text x="187.00" y="213.30" font-size="2.0" text-anchor="middle" fill="#1f5fa8">521</text>
<path d="M185.88,198.60 L204.12,198.60 L204.12,199.70 L185.88,199.70 Z" fill="#ffffff" stroke="#111111" stroke-width="0.3" stroke-linejoin="round"/>
<path d="M185.88,200.30 L204.12,200.30 L204.12,201.40 L185.88,201.40 Z" fill="#ffffff" stroke="#111111" stroke-width="0.3" stroke-linejoin="round"/>
<path d="M185.28,198.20 L185.28,201.80" fill="none" stroke="#111111" stroke-width="0.5" stroke-linejoin="round"/>
<path d="M204.72,198.20 L204.72,201.80" fill="none" stroke="#111111" stroke-width="0.5" stroke-linejoin="round"/>
<circle cx="181.08" cy="200.00" r="2.90" fill="#ffffff" stroke="#1f5fa8" stroke-width="0.25"/>
<text x="181.08" y="200.90" font-size="2.0" text-anchor="middle" fill="#1f5fa8">522</text>
<path d="M187.38,199.00 L202.62,199.00" fill="none" stroke="#111111" stroke-width="0.25" stroke-dasharray="0.6 1" stroke-linejoin="round"/>
<path d="M202.62,80.00 L209.12,80.00" fill="none" stroke="#111111" stroke-width="0.18" stroke-linejoin="round"/>
<path d="M202.62,200.00 L209.12,200.00" fill="none" stroke="#111111" stroke-width="0.18" stroke-linejoin="round"/>
<path d="M207.62,80.00 L207.62,200.00" fill="none" stroke="#111111" stroke-width="0.18" stroke-linejoin="round"/>
<path d="M207.62,80.00 L208.42,82.20 L206.82,82.20 Z" fill="#111111" stroke="#111111" stroke-width="0.1" stroke-linejoin="round"/>
<path d="M207.62,200.00 L206.82,197.80 L208.42,197.80 Z" fill="#111111" stroke="#111111" stroke-width="0.1" stroke-linejoin="round"/>
<text x="208.82" y="140.88" font-size="2.5" text-anchor="start" fill="#111111">600</text>
<path d="M276.40,53.40 L277.70,53.40 L277.70,56.60 L276.40,56.60 Z" fill="#eeeeee" stroke="#111111" stroke-width="0.3" stroke-linejoin="round"/>
<path d="M265.60,53.32 L270.40,56.68 L270.40,53.32 L265.60,56.68 Z" fill="#ffffff" stroke="#111111" stroke-width="0.3" stroke-linejoin="round"/>
<path d="M268.00,55.00 L268.00,51.88" fill="none" stroke="#111111" stroke-width="0.3" stroke-linejoin="round"/>
<path d="M266.50,51.88 L269.50,51.88" fill="none" stroke="#111111" stroke-width="0.4" stroke-linejoin="round"/>
<text x="263.00" y="49.00" font-size="1.9" text-anchor="start" fill="#111111">V-G2</text>
<path d="M278.10,51.80 L279.20,51.80 L279.20,58.20 L278.10,58.20 Z" fill="#ffffff" stroke="#111111" stroke-width="0.3" stroke-linejoin="round"/>
<path d="M279.80,51.80 L280.90,51.80 L280.90,58.20 L279.80,58.20 Z" fill="#ffffff" stroke="#111111" stroke-width="0.3" stroke-linejoin="round"/>
<path d="M277.70,51.20 L281.30,51.20" fill="none" stroke="#111111" stroke-width="0.5" stroke-linejoin="round"/>
<path d="M277.70,58.80 L281.30,58.80" fill="none" stroke="#111111" stroke-width="0.5" stroke-linejoin="round"/>
<circle cx="279.50" cy="47.80" r="2.90" fill="#ffffff" stroke="#1f5fa8" stroke-width="0.25"/>
<text x="279.50" y="48.70" font-size="2.0" text-anchor="middle" fill="#1f5fa8">523</text>
<path d="M286.92,55.00 L283.08,56.68 L283.08,53.32 Z" fill="#111111" stroke="#111111" stroke-width="0.3" stroke-linejoin="round"/>
<path d="M286.92,56.92 L286.92,53.08" fill="none" stroke="#111111" stroke-width="0.5" stroke-linejoin="round"/>
<text x="285.00" y="60.50" font-size="1.9" text-anchor="middle" fill="#111111">NRV-3</text>
<path d="M289.10,51.80 L290.20,51.80 L290.20,58.20 L289.10,58.20 Z" fill="#ffffff" stroke="#111111" stroke-width="0.3" stroke-linejoin="round"/>
<path d="M290.80,51.80 L291.90,51.80 L291.90,58.20 L290.80,58.20 Z" fill="#ffffff" stroke="#111111" stroke-width="0.3" stroke-linejoin="round"/>
<path d="M288.70,51.20 L292.30,51.20" fill="none" stroke="#111111" stroke-width="0.5" stroke-linejoin="round"/>
<path d="M288.70,58.80 L292.30,58.80" fill="none" stroke="#111111" stroke-width="0.5" stroke-linejoin="round"/>
<circle cx="290.50" cy="47.80" r="2.90" fill="#ffffff" stroke="#1f5fa8" stroke-width="0.25"/>
<text x="290.50" y="48.70" font-size="2.0" text-anchor="middle" fill="#1f5fa8">524</text>
<path d="M292.30,53.40 L293.60,53.40 L293.60,56.60 L292.30,56.60 Z" fill="#eeeeee" stroke="#111111" stroke-width="0.3" stroke-linejoin="round"/>
<text x="302.00" y="56.00" font-size="2.0" text-anchor="start" fill="#111111">→ R-1, T2 под крышку (лист 2)</text>
<text x="250.00" y="67.00" font-size="2.0" text-anchor="start" fill="#c62828">трубка PTFE 10×12 + обжим 12 мм, L=?</text>
<text x="250.00" y="71.00" font-size="2.0" text-anchor="start" fill="#111111">переход обжим 12 мм → ¼″ у T2; NRV-3 — кламп ½″</text>
<text x="250.00" y="80.00" font-size="2.8" text-anchor="start" fill="#111111" font-weight="bold">Доработка бака Altmaler G-1</text>
<text x="250.00" y="85.50" font-size="2.0" text-anchor="start" fill="#c62828">• снять блок редуктора (латунь); порт G? → переходник</text>
<text x="250.00" y="88.90" font-size="2.0" text-anchor="start" fill="#c62828">  нерж. G? → ½″; резьбы всех штуцеров — замерить (?)</text>
<text x="250.00" y="92.30" font-size="2.0" text-anchor="start" fill="#111111">• вход р-ра (сифон) и выход газа — наруж. G¼″:</text>
<text x="250.00" y="95.70" font-size="2.0" text-anchor="start" fill="#111111">  переходник кламп K25 – резьба внутр. G¼″, AISI 316</text>
<text x="250.00" y="99.10" font-size="2.0" text-anchor="start" fill="#111111">• прокладка крышки → EPDM</text>
<text x="250.00" y="102.50" font-size="2.0" text-anchor="start" fill="#111111">• проверить внутр. покрытие (Zn/Al — недопустимо)</text>
<text x="250.00" y="105.90" font-size="2.0" text-anchor="start" fill="#111111">• штатный предохр. клапан оставить (если нерж.)</text>
<text x="250.00" y="115.00" font-size="2.8" text-anchor="start" fill="#111111" font-weight="bold">Колонны C-1, C-2 — из чего собраны (каждая)</text>
<text x="250.00" y="120.50" font-size="2.0" text-anchor="start" fill="#111111">1. Корпус: царга кламп 3″ L=400 + диоптр кламп 3″ L≈200 сверху</text>
<text x="250.00" y="123.90" font-size="2.0" text-anchor="start" fill="#111111">   (видно засыпку и фронт влаги), всего ≈2,5 л.</text>
<text x="250.00" y="127.30" font-size="2.0" text-anchor="start" fill="#111111">2. Низ и верх: переходы кламп 3″ → 1″ (K91/K50,5) → ½″ (K50,5/K25).</text>
<text x="250.00" y="130.70" font-size="2.0" text-anchor="start" fill="#111111">3. Опора и удержание засыпки: межкламповый фильтр 3″</text>
<text x="250.00" y="134.10" font-size="2.0" text-anchor="start" fill="#111111">   снизу и сверху (сетка ≤1 мм) — вместо сетчатых прокладок.</text>
<text x="250.00" y="137.50" font-size="2.0" text-anchor="start" fill="#111111">4. Хомуты K91 — 3 шт. + 1 на каждый фильтр, K25 — 2 шт.</text>
<text x="250.00" y="140.90" font-size="2.0" text-anchor="start" fill="#111111">5. Крепление: 2 хомута-держателя Ø76 на стойку.</text>
<text x="250.00" y="144.30" font-size="2.0" text-anchor="start" fill="#111111">6. C-1: сита 3A ≈1,8 кг; C-2: NaOH (KOH) гранулы ≈2,7 кг.</text>
<text x="250.00" y="147.70" font-size="2.0" text-anchor="start" fill="#111111">   Загрузка — снять верхний хомут, засыпать, закрыть.</text>
<text x="250.00" y="151.10" font-size="2.0" text-anchor="start" fill="#111111">7. Газ снизу вверх. Межколонные линии — трубка PTFE</text>
<text x="250.00" y="154.50" font-size="2.0" text-anchor="start" fill="#111111">   10×12, переходник ½″ → G½″ нар. + обжим 12 мм.</text>
<text x="38.60" y="130.60" font-size="1.7" text-anchor="end" fill="#1f5fa8">K25</text>
<text x="42.00" y="114.40" font-size="1.7" text-anchor="middle" fill="#1f5fa8">K25</text>
<text x="38.60" y="106.60" font-size="1.7" text-anchor="end" fill="#1f5fa8">K25</text>
<text x="54.60" y="100.60" font-size="1.7" text-anchor="end" fill="#1f5fa8">K25</text>
<text x="82.50" y="100.90" font-size="1.7" text-anchor="middle" fill="#1f5fa8">K25</text>
<text x="63.10" y="78.60" font-size="1.7" text-anchor="end" fill="#1f5fa8">K25</text>
<text x="109.90" y="97.60" font-size="1.7" text-anchor="start" fill="#1f5fa8">K25</text>
<text x="109.90" y="81.60" font-size="1.7" text-anchor="start" fill="#1f5fa8">K25</text>
<text x="132.68" y="120.60" font-size="1.7" text-anchor="end" fill="#1f5fa8">K91</text>
<text x="132.68" y="80.60" font-size="1.7" text-anchor="end" fill="#1f5fa8">K91</text>
<text x="138.60" y="74.80" font-size="1.7" text-anchor="end" fill="#1f5fa8">K50,5</text>
<text x="161.40" y="68.20" font-size="1.7" text-anchor="start" fill="#1f5fa8">K25</text>
<text x="161.40" y="206.40" font-size="1.7" text-anchor="start" fill="#1f5fa8">K50,5</text>
<text x="138.60" y="213.00" font-size="1.7" text-anchor="end" fill="#1f5fa8">K25</text>
<text x="132.68" y="200.60" font-size="1.7" text-anchor="end" fill="#1f5fa8">K91</text>
<text x="177.68" y="120.60" font-size="1.7" text-anchor="end" fill="#1f5fa8">K91</text>
<text x="177.68" y="80.60" font-size="1.7" text-anchor="end" fill="#1f5fa8">K91</text>
<text x="183.60" y="74.80" font-size="1.7" text-anchor="end" fill="#1f5fa8">K50,5</text>
<text x="206.40" y="68.20" font-size="1.7" text-anchor="start" fill="#1f5fa8">K25</text>
<text x="206.40" y="206.40" font-size="1.7" text-anchor="start" fill="#1f5fa8">K50,5</text>
<text x="183.60" y="213.00" font-size="1.7" text-anchor="end" fill="#1f5fa8">K25</text>
<text x="177.68" y="200.60" font-size="1.7" text-anchor="end" fill="#1f5fa8">K91</text>
<text x="282.90" y="48.40" font-size="1.7" text-anchor="start" fill="#1f5fa8">K25</text>
<text x="293.90" y="48.40" font-size="1.7" text-anchor="start" fill="#1f5fa8">K25</text>
</svg>